<?xml version="1.0" encoding="UTF-8" standalone="no"?>
<!DOCTYPE svg PUBLIC "-//W3C//DTD SVG 1.1//EN" "http://www.w3.org/Graphics/SVG/1.1/DTD/svg11.dtd"><svg
  width="100%"
  height="100%"
  viewBox="0 0 1513 925"
  version="1.1"
  xmlns="http://www.w3.org/2000/svg"
  xmlns:xlink="http://www.w3.org/1999/xlink"
  xml:space="preserve"
  xmlns:serif="http://www.serif.com/"
  style="fill-rule: evenodd; clip-rule: evenodd; stroke-linecap: round; stroke-linejoin: round; stroke-miterlimit: 1.5"
>
  <g><g><path
        d="M881.005,465.736l-2.537,340.406l441.748,-0.712l4.605,-340.406c277.494,-26.999 198.241,-411.038 -42.162,-360.828c-93.019,-134.221 -271.292,-128.586 -360.609,-1.246c-268.369,-37.303 -308.312,334.049 -41.045,362.786Zm131.609,35.144l-109.18,-0l-0,266.601l48.047,0l-0,-105.664l66.601,0c25.001,-0 45.639,-7.552 61.914,-22.656c16.276,-15.104 24.414,-34.831 24.414,-59.18c0,-21.354 -7.519,-39.876 -22.558,-55.566c-15.039,-15.69 -38.118,-23.535 -69.238,-23.535Zm294.531,41.211l-0,-41.211l-193.36,-0l0,41.211l70.899,-0l-0,225.39l51.562,0l0,-225.39l70.899,-0Zm-298.828,78.515l-56.836,0l-0,-79.882l52.539,-0c18.881,-0 31.934,3.906 39.16,11.718c7.227,7.813 10.84,17.188 10.84,28.125c-0,12.11 -3.906,21.81 -11.719,29.102c-7.812,7.291 -19.14,10.937 -33.984,10.937Z"
        style="stroke: #000; stroke-width: 4.17px"
      /><path
        d="M878.468,847.808l442.437,0l1.55,71.711l-443.815,-1.423l-0.172,-70.288Z"
        style="stroke: #000; stroke-width: 4.17px"
      /></g><g><path
        d="M211.832,767.481l-50.781,0l-41.406,-109.57l-67.578,0l-0,109.57l-48.047,0l-0,-266.601l115.625,-0c32.161,-0 55.794,7.259 70.898,21.777c15.104,14.518 22.656,33.301 22.656,56.348c0,34.245 -16.015,57.812 -48.046,70.703l46.679,117.773Zm-159.765,-148.047l59.765,0c17.318,0 30.209,-3.645 38.672,-10.937c8.464,-7.292 12.695,-17.318 12.695,-30.078c0,-11.719 -4.166,-21.192 -12.5,-28.418c-8.333,-7.227 -19.987,-10.84 -34.96,-10.84l-63.672,0l-0,80.273Z"
        style="fill-rule: nonzero"
      /><path
        d="M434.293,767.481l-173.242,0l0,-266.601l171.484,-0l0,39.648l-123.437,0l-0,72.266l99.219,-0l-0,38.672l-99.219,-0l-0,74.609l125.195,0l0,41.406Z"
        style="fill-rule: nonzero"
      /><path
        d="M651.481,726.075l-0,41.406l-197.071,0l0,-37.89l136.524,-190.625l-126.953,-0l-0,-38.086l183.593,-0l0,38.086l-134.96,187.109l138.867,0Z"
        style="fill-rule: nonzero"
      /><path
        d="M862.028,767.481l-173.243,0l0,-266.601l171.485,-0l-0,39.648l-123.438,0l0,72.266l99.219,-0l0,38.672l-99.219,-0l0,74.609l125.196,0l-0,41.406Z"
        style="fill-rule: nonzero"
      /><path
        d="M1509.68,767.481l-173.242,0l-0,-266.601l171.484,-0l0,39.648l-123.437,0l-0,72.266l99.218,-0l0,38.672l-99.218,-0l-0,74.609l125.195,0l-0,41.406Z"
        style="fill-rule: nonzero"
      /></g><path
      d="M86.246,363.95l-37.402,0l0,99.121l-7.812,0l-0,-99.121l-37.012,0l-0,-7.812l82.226,-0l0,7.812Z"
      style="fill-rule: nonzero"
    /><path
      d="M179.02,363.95l-37.403,0l0,99.121l-7.812,0l-0,-99.121l-37.012,0l0,-7.812l82.227,-0l-0,7.812Z"
      style="fill-rule: nonzero"
    /><path
      d="M237.516,465.024c-7.227,0 -13.542,-0.765 -18.945,-2.295c-5.404,-1.529 -9.945,-3.71 -13.623,-6.542c-3.679,-2.833 -6.495,-6.25 -8.448,-10.254c-1.953,-4.004 -3.092,-8.513 -3.418,-13.526l7.715,0c0.781,4.818 2.246,8.822 4.395,12.012c2.148,3.19 4.801,5.729 7.959,7.617c3.157,1.888 6.754,3.223 10.791,4.004c4.036,0.781 8.333,1.172 12.89,1.172c4.753,-0 9.033,-0.505 12.842,-1.514c3.809,-1.009 7.064,-2.474 9.766,-4.394c2.702,-1.921 4.769,-4.232 6.201,-6.934c1.432,-2.702 2.148,-5.745 2.148,-9.131c0,-3.58 -0.618,-6.592 -1.855,-9.033c-1.237,-2.441 -3.32,-4.574 -6.25,-6.396c-2.93,-1.823 -6.787,-3.451 -11.572,-4.883c-4.786,-1.433 -10.726,-2.897 -17.823,-4.395c-5.859,-1.302 -10.888,-2.799 -15.088,-4.492c-4.199,-1.693 -7.666,-3.662 -10.4,-5.908c-2.734,-2.246 -4.753,-4.818 -6.055,-7.715c-1.302,-2.897 -1.953,-6.266 -1.953,-10.107c0,-4.167 0.879,-7.976 2.637,-11.426c1.758,-3.451 4.248,-6.413 7.471,-8.887c3.222,-2.474 7.096,-4.394 11.621,-5.762c4.524,-1.367 9.521,-2.05 14.99,-2.05c5.469,-0 10.482,0.634 15.039,1.904c4.557,1.269 8.545,3.109 11.963,5.517c3.418,2.409 6.185,5.339 8.301,8.789c2.116,3.451 3.467,7.357 4.052,11.719l-7.519,0c-0.716,-2.864 -1.888,-5.534 -3.516,-8.008c-1.627,-2.474 -3.727,-4.606 -6.299,-6.396c-2.571,-1.79 -5.631,-3.19 -9.179,-4.199c-3.548,-1.009 -7.601,-1.514 -12.158,-1.514c-9.571,0 -16.814,1.758 -21.729,5.273c-4.915,3.516 -7.373,8.334 -7.373,14.454c0,2.799 0.456,5.241 1.367,7.324c0.912,2.083 2.458,3.955 4.639,5.615c2.181,1.66 5.062,3.125 8.642,4.395c3.581,1.269 8.041,2.457 13.379,3.564c3.125,0.651 6.348,1.335 9.668,2.051c3.321,0.716 6.56,1.562 9.717,2.539c3.158,0.976 6.169,2.181 9.033,3.613c2.865,1.432 5.355,3.19 7.471,5.274c2.116,2.083 3.809,4.573 5.078,7.47c1.27,2.897 1.904,6.332 1.904,10.303c0,4.557 -0.96,8.74 -2.88,12.549c-1.921,3.808 -4.59,7.096 -8.008,9.863c-3.418,2.767 -7.487,4.916 -12.207,6.445c-4.72,1.53 -9.847,2.295 -15.381,2.295Z"
      style="fill-rule: nonzero"
    /><path
      d="M373.063,363.95l-37.403,0l0,99.121l-7.812,0l-0,-99.121l-37.012,0l0,-7.812l82.227,-0l-0,7.812Z"
      style="fill-rule: nonzero"
    /><rect
      x="395.035"
      y="448.813"
      width="14.258"
      height="14.258"
      style="fill-rule: nonzero"
    /><path
      d="M526.188,408.774c-0,36.198 -18.002,54.297 -54.004,54.297l-32.324,0l-0,-106.836l32.324,0c18.034,0 31.543,4.346 40.527,13.037c8.985,8.692 13.477,21.859 13.477,39.502Zm-8.301,0c-0,-7.031 -0.7,-13.313 -2.1,-18.847c-1.399,-5.534 -3.857,-10.238 -7.373,-14.112c-3.515,-3.873 -8.219,-6.819 -14.111,-8.837c-5.892,-2.019 -13.33,-3.028 -22.314,-3.028l-24.317,0l0,91.309l24.317,-0c8.919,-0 16.324,-1.042 22.216,-3.125c5.892,-2.084 10.596,-5.127 14.112,-9.131c3.515,-4.004 5.989,-8.871 7.422,-14.6c1.432,-5.729 2.148,-12.272 2.148,-19.629Z"
      style="fill-rule: nonzero"
    /><path
      d="M626.871,463.071l-77.246,0l0,-106.933l74.61,-0l-0,7.812l-66.797,0l-0,39.551l62.597,-0l0,7.812l-62.597,0l-0,43.946l69.433,-0l0,7.812Z"
      style="fill-rule: nonzero"
    /></g>
</svg>
