<?xml version="1.0" encoding="UTF-8" standalone="no"?>
<!DOCTYPE svg PUBLIC "-//W3C//DTD SVG 1.1//EN" "http://www.w3.org/Graphics/SVG/1.1/DTD/svg11.dtd">
<svg width="1513px" height="925px" version="1.1" xmlns="http://www.w3.org/2000/svg" xml:space="preserve"
     style="fill-rule:evenodd;clip-rule:evenodd;stroke-linecap:round;stroke-linejoin:round;stroke-miterlimit:1.5;">
    <g>
        <g>
            <path d="M881.005,465.736l-2.537,340.406l441.748,-0.712l4.605,-340.406c277.494,-26.999 198.241,-411.038 -42.162,-360.828c-93.019,-134.221 -271.292,-128.586 -360.609,-1.246c-268.369,-37.303 -308.312,334.049 -41.045,362.786Zm131.609,35.144l-109.18,-0l-0,266.601l48.047,0l-0,-105.664l66.601,0c25.001,-0 45.639,-7.552 61.914,-22.656c16.276,-15.104 24.414,-34.831 24.414,-59.18c0,-21.354 -7.519,-39.876 -22.558,-55.566c-15.039,-15.69 -38.118,-23.535 -69.238,-23.535Zm294.531,41.211l-0,-41.211l-193.36,-0l0,41.211l70.899,-0l-0,225.39l51.562,0l0,-225.39l70.899,-0Zm-298.828,78.515l-56.836,0l-0,-79.882l52.539,-0c18.881,-0 31.934,3.906 39.16,11.718c7.227,7.813 10.84,17.188 10.84,28.125c-0,12.11 -3.906,21.81 -11.719,29.102c-7.812,7.291 -19.14,10.937 -33.984,10.937Z" style="stroke:#000;stroke-width:4.17px;"/>
            <path d="M878.468,847.808l442.437,0l1.55,71.711l-443.815,-1.423l-0.172,-70.288Z" style="stroke:#000;stroke-width:4.17px;"/>
        </g>
        <g>
            <path d="M211.832,767.481l-50.781,0l-41.406,-109.57l-67.578,0l-0,109.57l-48.047,0l-0,-266.601l115.625,-0c32.161,-0 55.794,7.259 70.898,21.777c15.104,14.518 22.656,33.301 22.656,56.348c0,34.245 -16.015,57.812 -48.046,70.703l46.679,117.773Zm-159.765,-148.047l59.765,0c17.318,0 30.209,-3.645 38.672,-10.937c8.464,-7.292 12.695,-17.318 12.695,-30.078c0,-11.719 -4.166,-21.192 -12.5,-28.418c-8.333,-7.227 -19.987,-10.84 -34.96,-10.84l-63.672,0l-0,80.273Z" style="fill-rule:nonzero;"/>
            <path d="M434.293,767.481l-173.242,0l0,-266.601l171.484,-0l0,39.648l-123.437,0l-0,72.266l99.219,-0l-0,38.672l-99.219,-0l-0,74.609l125.195,0l0,41.406Z" style="fill-rule:nonzero;"/>
            <path d="M651.481,726.075l-0,41.406l-197.071,0l0,-37.89l136.524,-190.625l-126.953,-0l-0,-38.086l183.593,-0l0,38.086l-134.96,187.109l138.867,0Z" style="fill-rule:nonzero;"/>
            <path d="M862.028,767.481l-173.243,0l0,-266.601l171.485,-0l-0,39.648l-123.438,0l0,72.266l99.219,-0l0,38.672l-99.219,-0l0,74.609l125.196,0l-0,41.406Z" style="fill-rule:nonzero;"/>
            <path d="M1509.68,767.481l-173.242,0l-0,-266.601l171.484,-0l0,39.648l-123.437,0l-0,72.266l99.218,-0l0,38.672l-99.218,-0l-0,74.609l125.195,0l-0,41.406Z" style="fill-rule:nonzero;"/>
        </g>
        <text x="-1.254px" y="463.071px" style="font-family:'Microsoft-Yi-Baiti', 'Microsoft Yi Baiti', cursive;font-size:200px;">TTST.DE</text>
    </g>
</svg>
